<svg xmlns="http://www.w3.org/2000/svg" xmlns:xlink="http://www.w3.org/1999/xlink" xmlns:inkscape="http://www.inkscape.org/namespaces/inkscape" version="1.1" width="907" height="397" viewBox="0 0 907 397">
<defs>
<clipPath id="clip_0">
<path transform="matrix(1,0,0,-1,0,397)" d="M0 .04000887H906.96V397H0Z"/>
</clipPath>
</defs>
<g clip-path="url(#clip_0)">
<path transform="matrix(1,0,0,-1,0,397)" d="M0 397H906.96V.04000887H0Z" fill="#ffffff"/>
</g>
<path transform="matrix(1,0,0,-1,0,397)" d="M0 397H907.125V.124971H0Z" fill="#ffffff"/>
<path transform="matrix(1,0,0,-1,0,397)" d="M5.757795 97.72744C5.757795 101.5521 8.858288 104.6526 12.68294 104.6526H891.8453C895.6699 104.6526 898.7704 101.5521 898.7704 97.72744V12.0363C898.7704 8.211627 895.6699 5.111118 891.8453 5.111118H12.68294C8.858288 5.111118 5.757795 8.211627 5.757795 12.0363Z" fill="#f2f2f2" fill-rule="evenodd"/>
<path transform="matrix(.00007874016,0,0,.00007874016,5.757795,292.3474)" stroke-width="12700" stroke-linecap="butt" stroke-miterlimit="8" stroke-linejoin="miter" fill="none" stroke="#000000" d="M0 87949.76C0 39376.45 39376.26 0 87949.34 0H11253311C11301884 0 11341260 39376.45 11341260 87949.76V1176227C11341260 1224801 11301884 1264177 11253311 1264177H87949.34C39376.26 1264177 0 1224801 0 1176227Z"/>
<path transform="matrix(1,0,0,-1,0,397)" d="M7.05622 384.149C7.05622 388.1204 10.27564 391.3398 14.247 391.3398H892.878C896.8494 391.3398 900.0688 388.1204 900.0688 384.149V140.2429C900.0688 136.2715 896.8494 133.052 892.878 133.052H14.247C10.27564 133.052 7.05622 136.2715 7.05622 140.2429Z" fill="#f2f2f2" fill-rule="evenodd"/>
<path transform="matrix(.00007874016,0,0,.00007874016,7.05622,5.660187)" stroke-width="12700" stroke-linecap="butt" stroke-miterlimit="8" stroke-linejoin="miter" fill="none" stroke="#000000" d="M0 91323.19C0 40886.78 40886.67 0 91322.94 0H11249937C11300374 0 11341260 40886.78 11341260 91323.19V3188932C11341260 3239368 11300374 3280255 11249937 3280255H91322.94C40886.67 3280255 0 3239368 0 3188932Z"/>
<text fill="#9d1d32" xml:space="preserve" transform="matrix(.24 0 -0 .24 274.5634 652.56)" font-size="75" font-family="ArialMT"><tspan y="-1654" x="0 50.002508 87.5025 129.17252 145.83751 187.5075 212.50502 254.17502 275.01 291.67503 333.34504 375.01506 395.85005 412.51506 454.18507 475.02006 512.52 529.18508 570.85507 608.35507 645.85507 662.5201 700.0201 720.85507 783.3526 825.0226 841.6876 862.5226 879.1876 941.6851 983.3551 1025.025 1066.695 1083.36 1104.195 1166.6924 1208.3623 1250.0322 1291.7022 1308.3672">Exploration in classic multimodal models</tspan></text>
<path transform="matrix(1,0,0,-1,0,397)" d="M16.97858 96.10015H254.6713V34.30252H16.97858Z" fill="#fbe5d6"/>
<text xml:space="preserve" transform="matrix(.24 0 -0 .24 33.45992 716.4)" font-size="62.5" font-family="ArialMT"><tspan y="-1654" x="0 45.312505 80.20626 101.03751 121.86877 156.76253 191.65628 208.84378 226.03128 267.70005 309.3688 347.38755 384.28129 401.46879 418.65629 453.55003 474.38127 491.56877 543.65 578.54379 613.4375 665.51876 696.76876 713.95626 748.85 766.0375 783.225 818.1187 853.01248">Current PEFT for MLLMs often </tspan></text>
<text xml:space="preserve" transform="matrix(.24 0 -0 .24 28.07492 734.4)" font-size="62.5" font-family="ArialMT"><tspan y="-1654" x="0 14.062501 48.956254 83.850009 118.74376 139.57501 174.46877 191.65627 243.73752 278.63127 292.69377 309.88127 323.94377 376.025 410.91874 445.81248 480.7062 494.7687 511.95625 543.20626 578.1 612.9937 633.82498 668.7187 699.9687 717.1562 752.0499 772.88119 786.94369 818.19369 835.38119 849.44369 880.69369 897.88119">ignore multimodal characteristic. </tspan></text>
<text xml:space="preserve" transform="matrix(.24 0 -0 .24 69.50992 752.4)" font-size="62.5" font-family="ArialMT"><tspan y="-1654" x="0">(</tspan></text>
<text fill="#c00000" xml:space="preserve" transform="matrix(.24 0 -0 .24 74.50992 752.4)" font-size="62.5" font-family="Arial" font-style="italic"><tspan y="-1654" x="0 45.312505 80.18751 115.062519 135.87502 153.06252 194.75002">NeurIPS</tspan></text>
<text fill="#c00000" xml:space="preserve" transform="matrix(.24 0 -0 .24 131.2599 752.4)" font-size="62.5" font-family="Arial" font-style="italic"><tspan y="-1654" x="0"> </tspan></text>
<text fill="#c00000" xml:space="preserve" transform="matrix(.24 0 -0 .24 135.3849 752.4)" font-size="62.5" font-family="Arial" font-style="italic"><tspan y="-1654" x="0 34.893754 69.787509 86.99376 135.45001 180.78127 222.42502">25 ORAL</tspan></text>
<text xml:space="preserve" transform="matrix(.24 0 -0 .24 197.1349 752.4)" font-size="62.5" font-family="ArialMT"><tspan y="-1654" x="0">)</tspan></text>
<path transform="matrix(1,0,0,-1,0,397)" d="M267.0593 330.397V339.5031H253.4554V357.7151H267.0593V366.8211L280.6631 348.6091Z" fill="#d9d9d9" fill-rule="evenodd"/>
<path transform="matrix(1,0,0,-1,0,397)" d="M269.5739 250.0626V259.1686H255.97V277.3807H269.5739V286.4867L283.1778 268.2746Z" fill="#d9d9d9" fill-rule="evenodd"/>
<path transform="matrix(1,0,0,-1,0,397)" d="M270.8826 175.1115V184.2175H257.2787V202.4295H270.8826V211.5356L284.4864 193.3235Z" fill="#d9d9d9" fill-rule="evenodd"/>
<path transform="matrix(1,0,0,-1,0,397)" d="M283.1887 97.18174H885.4888V35.3841H283.1887Z" fill="#fbe5d6"/>
<text xml:space="preserve" transform="matrix(.24 0 -0 .24 290.3887 715.44)" font-size="62.5" font-family="ArialMT"><tspan y="-1654" x="0 52.081254 86.975009 121.86876 173.95001 205.20001 222.38751 253.63751 288.53126 323.425 358.31874 372.38124 407.27497 424.46247 455.71247 490.6062 525.49996 556.74996 570.81246 605.7062 640.5999 661.43118 678.61868 713.5124 748.4061 765.5936 800.48739 817.67489 852.5686 887.46237 901.52487 953.6061 988.4998 1023.39358 1058.2874 1072.3499 1089.5374 1124.4312 1159.325 1194.2188 1211.4063 1242.6563 1263.4876 1298.3814 1329.6314">MLLMs should consider both unimodal and cross</tspan></text>
<text xml:space="preserve" transform="matrix(.24 0 -0 .24 617.0137 715.44)" font-size="62.5" font-family="ArialMT"><tspan y="-1654" x="0">-</tspan></text>
<text xml:space="preserve" transform="matrix(.24 0 -0 .24 622.0137 715.44)" font-size="62.5" font-family="ArialMT"><tspan y="-1654" x="0 52.081254 86.975009 121.86876 156.76251 170.84377 188.05002 222.94377 257.83753 292.73127 327.625 344.83125 379.72499 396.9312 411.01246 445.9062 480.79994 498.00617 511.7124 549.91867 567.1249 602.0186 636.91238 682.2436 699.4498 741.09359 782.7373 820.75607 857.6498">modal adaptation. A new PEFT </tspan></text>
<text xml:space="preserve" transform="matrix(.24 0 -0 .24 290.3887 733.44)" font-size="62.5" font-family="ArialMT"><tspan y="-1654" x="0 52.081254 86.975009 104.18126 139.07501 173.96877 208.86252 226.06877">method, </tspan></text>
<text xml:space="preserve" transform="matrix(.24 0 -0 .24 348.7637 733.44)" font-size="62.5" font-family="ArialMT"><tspan y="-1654" x="0 52.081254 86.975009 118.225009">MokA</tspan></text>
<text xml:space="preserve" transform="matrix(.24 0 -0 .24 387.1387 733.44)" font-size="62.5" font-family="ArialMT"><tspan y="-1654" x="0 17.187502 34.375005 48.437505 79.6875 96.875 131.76876 152.6 187.49376 222.38751 257.28126 288.53126 323.425 358.31874 375.50624 392.69374 427.58747 444.77497 479.6687 495.7312 512.9187 547.81246 579.06246 596.24996 610.31246 641.56246 676.4562 690.5187 721.7687 738.9562 770.2062 805.0999 839.99368 857.18118 892.0749 912.9061 947.79989 964.98739 999.8811 1034.7749 1048.8374 1100.9187 1135.8125 1170.7063 1205.6001 1219.6626 1236.8501 1250.9126 1285.8064 1302.9939 1337.8877 1358.719 1410.8003 1445.6941 1462.8816 1476.9441 1511.8379 1546.7317 1563.9192 1598.813 1633.7068 1668.6006 1685.7881 1720.6819 1755.5757 1790.4695 1825.3633 1860.2571 1891.5071 1926.4009">, is proposed to effectively capture unimodal information and enhance </tspan></text>
<text xml:space="preserve" transform="matrix(.24 0 -0 .24 290.3887 751.44)" font-size="62.5" font-family="ArialMT"><tspan y="-1654" x="0 31.25 52.08125 86.975009 118.225009">cross</tspan></text>
<text xml:space="preserve" transform="matrix(.24 0 -0 .24 326.2637 751.44)" font-size="62.5" font-family="ArialMT"><tspan y="-1654" x="0">-</tspan></text>
<text xml:space="preserve" transform="matrix(.24 0 -0 .24 331.2637 751.44)" font-size="62.5" font-family="ArialMT"><tspan y="-1654" x="0 52.081254 86.975009 121.86876 156.76251 170.82501 188.01251 202.07501 236.96877 254.15627 289.05003 309.88127 344.775 376.025 393.2125 407.275 442.16874 477.06248 494.24998">modal interaction (</tspan></text>
<text fill="#c00000" xml:space="preserve" transform="matrix(.24 0 -0 .24 454.8887 751.44)" font-size="62.5" font-family="Arial" font-style="italic"><tspan y="-1654" x="0 45.312505 80.18751 115.062519 135.87502 153.06252 194.75002">NeurIPS</tspan></text>
<text fill="#c00000" xml:space="preserve" transform="matrix(.24 0 -0 .24 511.6387 751.44)" font-size="62.5" font-family="Arial" font-style="italic"><tspan y="-1654" x="0"> </tspan></text>
<text fill="#c00000" xml:space="preserve" transform="matrix(.24 0 -0 .24 515.7637 751.44)" font-size="62.5" font-family="Arial" font-style="italic"><tspan y="-1654" x="0 34.893754 69.787509 86.99376 135.45001 180.78127 222.42502">25 ORAL</tspan></text>
<text xml:space="preserve" transform="matrix(.24 0 -0 .24 577.5137 751.44)" font-size="62.5" font-family="ArialMT"><tspan y="-1654" x="0 20.83125">).</tspan></text>
<path transform="matrix(1,0,0,-1,0,397)" d="M267.1412 48.07092V57.17692H253.5373V75.38893H267.1412V84.49493L280.745 66.28292Z" fill="#d9d9d9" fill-rule="evenodd"/>
<path transform="matrix(1,0,0,-1,0,397)" d="M284.7322 384.0697H887.0323V162.7291H284.7322Z" fill="#deebf7"/>
<text xml:space="preserve" transform="matrix(.24 0 -0 .24 291.9322 428.4)" font-size="62.5" font-family="ArialMT"><tspan y="-1654" x="0">&#x2022;</tspan></text>
<path transform="matrix(1,0,0,-1,0,397)" d="M314.9322 363.4697H452.9322V364.4697H314.9322Z" fill-rule="evenodd"/>
<text xml:space="preserve" transform="matrix(.24 0 -0 .24 314.4322 428.4)" font-size="62.5" font-family="Arial" font-weight="bold" font-style="italic"><tspan y="-1654" x="0 48.437505 86.45625 107.287509 124.475009 180.20626 197.39376 228.64376 263.5375 284.36875 301.55625 339.57499">Optimization</tspan></text>
<text xml:space="preserve" transform="matrix(.24 0 -0 .24 405.0572 428.4)" font-size="62.5" font-family="Arial" font-weight="bold" font-style="italic"><tspan y="-1654" x="0">-</tspan></text>
<text xml:space="preserve" transform="matrix(.24 0 -0 .24 410.0572 428.4)" font-size="62.5" font-family="Arial" font-weight="bold" font-style="italic"><tspan y="-1654" x="0 34.893754 83.350009 118.24376 142.70001">aware</tspan></text>
<text xml:space="preserve" transform="matrix(.24 0 -0 .24 452.6822 428.4)" font-size="62.5" font-family="ArialMT"><tspan y="-1654" x="0 17.187502 30.918755 72.58751 86.65001 100.71251 135.60626 166.85626 180.91876 215.81252 233.00002 267.89378 285.08128 319.975 354.86875 372.05625 386.11875 438.19999 452.26249 483.51249 518.40628 535.59378 549.65628 584.55 619.4437 636.6312 650.6937 702.77499 737.6687 772.56246 786.62496 821.5187 856.4124 887.6624 922.55618 939.74368 970.99368 985.05618 1019.9499 1037.1375 1072.0313">: Alleviate optimization imbalance via on</tspan></text>
<text xml:space="preserve" transform="matrix(.24 0 -0 .24 718.3522 428.4)" font-size="62.5" font-family="ArialMT"><tspan y="-1654" x="0">-</tspan></text>
<text xml:space="preserve" transform="matrix(.24 0 -0 .24 723.3522 428.4)" font-size="62.5" font-family="ArialMT"><tspan y="-1654" x="0 17.187502 52.062509">the</tspan></text>
<text xml:space="preserve" transform="matrix(.24 0 -0 .24 744.2272 428.4)" font-size="62.5" font-family="ArialMT"><tspan y="-1654" x="0">-</tspan></text>
<text xml:space="preserve" transform="matrix(.24 0 -0 .24 749.2272 428.4)" font-size="62.5" font-family="ArialMT"><tspan y="-1654" x="0 17.187502 31.250004 62.500005 79.68751 114.58127 135.41252 170.30628 205.20003 219.26253 254.15628 289.05003 306.23753">fly gradient </tspan></text>
<text xml:space="preserve" transform="matrix(.24 0 -0 .24 314.4322 446.4)" font-size="62.5" font-family="ArialMT"><tspan y="-1654" x="0 52.081254 86.975009 121.86876 156.76251 170.84377 205.73752 222.94377 237.02503 271.91877 306.8125 324.01875">modulation (</tspan></text>
<text fill="#c00000" xml:space="preserve" transform="matrix(.24 0 -0 .24 397.1822 446.4)" font-size="62.5" font-family="Arial" font-style="italic"><tspan y="-1654" x="0 45.312505 87.00001 128.68752">CVPR</tspan></text>
<text fill="#c00000" xml:space="preserve" transform="matrix(.24 0 -0 .24 443.0572 446.4)" font-size="62.5" font-family="Arial" font-style="italic"><tspan y="-1654" x="0 34.893754 69.787509 86.99376 135.45001 180.78127 222.42502">22 ORAL</tspan></text>
<text xml:space="preserve" transform="matrix(.24 0 -0 .24 504.8072 446.4)" font-size="62.5" font-family="ArialMT"><tspan y="-1654" x="0">)</tspan></text>
<text xml:space="preserve" transform="matrix(.24 0 -0 .24 513.9322 446.4)" font-size="62.5" font-family="ArialMT"><tspan y="-1654" x="0 34.893754 69.787509 104.68126 121.88751 156.78127">and bi</tspan></text>
<text xml:space="preserve" transform="matrix(.24 0 -0 .24 554.9322 446.4)" font-size="62.5" font-family="ArialMT"><tspan y="-1654" x="0">-</tspan></text>
<text xml:space="preserve" transform="matrix(.24 0 -0 .24 559.9322 446.4)" font-size="62.5" font-family="ArialMT"><tspan y="-1654" x="0 34.893754 48.956254 69.787509 104.68126 135.93126 153.11876 167.18126 202.07501 236.96877 271.86253 285.92503 303.11253 355.19377 390.0875 424.98124 459.87498 473.93748 508.8312 526.01876 540.08126 574.975 609.8687 627.0562">directional modulation (</tspan></text>
<text fill="#c00000" xml:space="preserve" transform="matrix(.24 0 -0 .24 715.4322 446.4)" font-size="62.5" font-family="Arial" font-style="italic"><tspan y="-1654" x="0">T</tspan></text>
<text fill="#c00000" xml:space="preserve" transform="matrix(.24 0 -0 .24 723.1822 446.4)" font-size="62.5" font-family="Arial" font-style="italic"><tspan y="-1654" x="0">-</tspan></text>
<text fill="#c00000" xml:space="preserve" transform="matrix(.24 0 -0 .24 728.1822 446.4)" font-size="62.5" font-family="Arial" font-style="italic"><tspan y="-1654" x="0 37.018754 78.662509 130.74376 147.95001 165.15627 200.05002">PAMI 24</tspan></text>
<text xml:space="preserve" transform="matrix(.24 0 -0 .24 784.5672 446.4)" font-size="62.5" font-family="ArialMT"><tspan y="-1654" x="0 20.83125 38.0375 55.24375 103.700008 124.53125">); Or </tspan></text>
<text xml:space="preserve" transform="matrix(.24 0 -0 .24 314.4322 464.4)" font-size="62.5" font-family="ArialMT"><tspan y="-1654" x="0 31.25 66.14375 101.037509 132.2875 146.35 181.24376 216.13751 236.96877 251.03127 285.92503 320.81877 338.00627 355.19377 390.0875 424.98124 442.16874 456.23124 491.12498 508.31248 529.14376 543.20626 578.1 609.35 623.4125 654.6625 671.85 685.9125 699.975 752.0562 766.1187 783.3062 818.19998 835.38748 849.44998 884.3437 919.2374 936.4249 981.7374 995.7999 1012.9874 1047.8812 1061.9437 1096.8375 1114.025 1166.1063 1201.0001 1235.8939 1270.7877 1284.8502 1298.9127 1316.1002 1330.1627 1365.0565 1396.3065 1413.494 1430.6815 1465.5753 1486.4066 1521.3004 1556.1942 1587.4442 1604.6317 1621.8192 1656.713 1691.6068 1708.7943 1729.6256 1764.5194 1778.5819 1792.6444 1827.5382 1862.432 1893.682 1928.5758 1945.7633 1980.6571 2015.5509 2032.7384 2067.6324 2088.4637 2123.3575 2140.545 2175.4388 2196.27 2217.1014 2251.995 2286.889">considering the intrinsic limitation within modalities, break the reliance on preferred </tspan></text>
<text xml:space="preserve" transform="matrix(.24 0 -0 .24 314.4322 482.4)" font-size="62.5" font-family="ArialMT"><tspan y="-1654" x="0 52.081254 86.975009 121.86876 156.76251 170.82501 184.88751 202.07501 233.32501 250.51251 285.40626 316.65626 333.84376 365.09376 399.9875 417.175 434.3625 451.55 472.38124">modality by soft re</tspan></text>
<text xml:space="preserve" transform="matrix(.24 0 -0 .24 436.1822 482.4)" font-size="62.5" font-family="ArialMT"><tspan y="-1654" x="0">-</tspan></text>
<text xml:space="preserve" transform="matrix(.24 0 -0 .24 441.1822 482.4)" font-size="62.5" font-family="ArialMT"><tspan y="-1654" x="0 14.062502 48.937509 83.812519 104.625019 139.50002 153.56252 188.43752 223.31252 240.50002">learning (</tspan></text>
<text fill="#c00000" xml:space="preserve" transform="matrix(.24 0 -0 .24 503.9322 482.4)" font-size="62.5" font-family="Arial" font-style="italic"><tspan y="-1654" x="0 41.668756 86.96251 132.25626 173.92502 191.09377 226.01251">ECCV 24</tspan></text>
<text xml:space="preserve" transform="matrix(.24 0 -0 .24 566.5572 482.4)" font-size="62.5" font-family="ArialMT"><tspan y="-1654" x="0 20.83125">).</tspan></text>
<text xml:space="preserve" transform="matrix(.24 0 -0 .24 579.8072 482.4)" font-size="62.5" font-family="ArialMT"><tspan y="-1654" x="0 48.437505 69.26875 86.45625 107.287509 142.18126 173.43126 208.32501 239.57501 274.46876 295.3 312.4875 343.7375 378.63124 413.52497 448.4187 469.24995 504.14369 535.3937 566.6437 601.5374 636.43118 653.61868 667.68118 702.5749 719.7624 754.6561 775.48739 827.5686 862.46237 879.64987 893.71237 928.6061 963.4998">Or recover suppressed information </tspan></text>
<text xml:space="preserve" transform="matrix(.24 0 -0 .24 314.4322 500.4)" font-size="62.5" font-family="ArialMT"><tspan y="-1654" x="0 34.893754 66.14375 101.037509 135.93126 149.99376 181.24376 195.30626 212.49376 226.55626 261.45 296.34376 313.53126 358.84376 372.90626 390.09376 424.9875 442.175 459.3625 494.25624 529.14999 546.33749 581.2312 616.12496 630.18746 665.0812 699.9749 734.86868 766.11868 801.0124 818.1999 853.0936 870.2811 887.4686 925.48739 939.54989 970.79989 1005.6936 1040.5874 1061.4187 1078.6062 1095.7937 1130.6875 1147.875 1182.7688 1203.6001 1255.6814 1290.5752 1307.7627 1321.8252 1356.719 1391.6128 1408.8003 1460.8816 1495.7754 1512.9629 1533.7942 1547.8567 1579.1067 1596.2942">acquisition with the guidance of Fisher Information Matrix (</tspan></text>
<text fill="#c00000" xml:space="preserve" transform="matrix(.24 0 -0 .24 702.5572 500.4)" font-size="62.5" font-family="Arial" font-style="italic"><tspan y="-1654" x="0 45.312505 87.00001 128.68752 174.00002 191.18752 226.06252">CVPR 25</tspan></text>
<text xml:space="preserve" transform="matrix(.24 0 -0 .24 765.1822 500.4)" font-size="62.5" font-family="ArialMT"><tspan y="-1654" x="0 20.83125">).</tspan></text>
<text xml:space="preserve" transform="matrix(.24 0 -0 .24 291.9322 525.6)" font-size="62.5" font-family="ArialMT"><tspan y="-1654" x="0">&#x2022;</tspan></text>
<path transform="matrix(1,0,0,-1,0,397)" d="M314.9322 266.4697H394.9322V267.4697H314.9322Z" fill-rule="evenodd"/>
<text xml:space="preserve" transform="matrix(.24 0 -0 .24 314.4322 525.6)" font-size="62.5" font-family="Arial" font-weight="bold" font-style="italic"><tspan y="-1654" x="0 45.312505 80.18751 101.00001">Data</tspan></text>
<text xml:space="preserve" transform="matrix(.24 0 -0 .24 347.0572 525.6)" font-size="62.5" font-family="Arial" font-weight="bold" font-style="italic"><tspan y="-1654" x="0">-</tspan></text>
<text xml:space="preserve" transform="matrix(.24 0 -0 .24 352.0572 525.6)" font-size="62.5" font-family="Arial" font-weight="bold" font-style="italic"><tspan y="-1654" x="0 34.893754 83.350009 118.24376 142.70001">aware</tspan></text>
<text xml:space="preserve" transform="matrix(.24 0 -0 .24 394.6822 525.6)" font-size="62.5" font-family="ArialMT"><tspan y="-1654" x="0 17.187502 34.375005 82.81251 117.70627 148.95627 183.85002 204.68128 235.93128 270.825 288.0125 305.2 319.2625 354.15626">: Observe fine</tspan></text>
<text xml:space="preserve" transform="matrix(.24 0 -0 .24 488.0572 525.6)" font-size="62.5" font-family="ArialMT"><tspan y="-1654" x="0">-</tspan></text>
<text xml:space="preserve" transform="matrix(.24 0 -0 .24 493.0572 525.6)" font-size="62.5" font-family="ArialMT"><tspan y="-1654" x="0 34.893754 55.725004 90.61876 104.68126 139.57501 174.46877 209.36252 226.55002 278.63127 313.525 348.41874 383.31248 397.37498 411.43748 428.62498 459.87498 477.06248 491.12498 543.20626 578.1 612.9937 627.0562 661.94998 696.8437 728.0937 762.9874 780.1749 815.06869 846.31869 863.50619 905.1749 940.06869 974.9624 1009.85617 1023.91867 1058.8125">grained modality imbalance by Shapley</tspan></text>
<text xml:space="preserve" transform="matrix(.24 0 -0 .24 754.6822 525.6)" font-size="62.5" font-family="ArialMT"><tspan y="-1654" x="0">-</tspan></text>
<text xml:space="preserve" transform="matrix(.24 0 -0 .24 759.6822 525.6)" font-size="62.5" font-family="ArialMT"><tspan y="-1654" x="0 31.25 66.14375 80.20625 115.100009 149.99376 167.18126 202.07501 236.96877 268.21876 303.1125 338.00624">value based </tspan></text>
<text xml:space="preserve" transform="matrix(.24 0 -0 .24 314.4322 543.6)" font-size="62.5" font-family="ArialMT"><tspan y="-1654" x="0 34.893754 66.14375 101.037509 115.100009 149.99376 184.88751 202.07501 216.13751 251.03127 285.92503 303.11253 320.30003 355.19377 390.0875 424.98124 442.16874 477.06248 511.9562 543.2062 578.0999 595.2874 626.5374 661.43118 692.68118 727.5749 744.7624 779.6561 814.54989 831.73739 845.79989 897.8811 932.77487 967.6686 981.7311 1016.6248 1051.5187 1082.7687 1117.6625 1134.85 1169.7438 1200.9938 1218.1813 1235.3688 1270.2626 1291.0939 1325.9877 1360.8815 1378.069 1412.9628 1447.8566 1465.0441 1485.8754">evaluation, and ease such an imbalance by targeted re</tspan></text>
<text xml:space="preserve" transform="matrix(.24 0 -0 .24 679.4322 543.6)" font-size="62.5" font-family="ArialMT"><tspan y="-1654" x="0">-</tspan></text>
<text xml:space="preserve" transform="matrix(.24 0 -0 .24 684.4322 543.6)" font-size="62.5" font-family="ArialMT"><tspan y="-1654" x="0 31.25 66.14375 118.225009 153.11876 167.18126 202.07501 219.26251 250.51251 267.7 288.53126 323.425 340.6125 375.50624 410.39997 441.64997 458.83747">sample strategy (</tspan></text>
<text fill="#c00000" xml:space="preserve" transform="matrix(.24 0 -0 .24 799.5572 543.6)" font-size="62.5" font-family="Arial" font-style="italic"><tspan y="-1654" x="0 45.312505 87.00001 128.68752 174.00002 191.18752 226.06252">CVPR 24</tspan></text>
<text xml:space="preserve" transform="matrix(.24 0 -0 .24 862.1822 543.6)" font-size="62.5" font-family="ArialMT"><tspan y="-1654" x="0 20.83125">).</tspan></text>
<text xml:space="preserve" transform="matrix(.24 0 -0 .24 291.9322 568.56)" font-size="62.5" font-family="ArialMT"><tspan y="-1654" x="0">&#x2022;</tspan></text>
<path transform="matrix(1,0,0,-1,0,397)" d="M314.9322 224.4697H404.9322 494.9322V223.4697H404.9322 314.9322Z" fill-rule="evenodd"/>
<text xml:space="preserve" transform="matrix(.24 0 -0 .24 314.4322 568.56)" font-size="62.5" font-family="Arial" font-weight="bold" font-style="italic"><tspan y="-1654" x="0 38.018754 72.912509 107.80626 132.26251 170.28127 187.48752 225.50627 263.52503 280.73127 318.75 356.76875 373.97499 408.86875 443.7625 464.59376 481.8 516.6937">Learning objective</tspan></text>
<text xml:space="preserve" transform="matrix(.24 0 -0 .24 446.8072 568.56)" font-size="62.5" font-family="Arial" font-weight="bold" font-style="italic"><tspan y="-1654" x="0">-</tspan></text>
<text xml:space="preserve" transform="matrix(.24 0 -0 .24 451.8072 568.56)" font-size="62.5" font-family="Arial" font-weight="bold" font-style="italic"><tspan y="-1654" x="0 34.893754 83.350009 118.24376 142.70001">aware</tspan></text>
<text xml:space="preserve" transform="matrix(.24 0 -0 .24 494.4322 568.56)" font-size="62.5" font-family="ArialMT"><tspan y="-1654" x="0 17.187502 34.375005 51.562509 86.45627 103.64377 124.47502 159.36878 194.26253 229.15628 260.40629 295.30003 312.48753 354.15629 389.05003 409.88127 444.775 461.9625 496.85624 514.04379 548.9375 583.83126 601.01876 615.08126 667.1625 702.0562 716.1187 730.1812 747.3687 778.6187 795.8062 812.9937 847.88748 865.07498 896.32498 931.2187 945.2812 976.5312 1011.4249 1028.6124 1059.8624 1094.7562 1129.65 1146.8375 1160.9 1174.9625 1206.2125 1223.4 1254.65 1271.8375 1306.7313 1341.6251 1358.8126 1404.1251 1439.0189 1473.9127 1508.8065">: Introduce Pareto optimality to solve conflicts between </tspan></text>
<text xml:space="preserve" transform="matrix(.24 0 -0 .24 314.4322 586.56)" font-size="62.5" font-family="ArialMT"><tspan y="-1654" x="0 34.893754 69.787509 83.850009 135.93126 170.82501 205.71877 240.61252 254.67502 271.86253 306.75627 341.65 376.54374 393.73124 445.81248 480.7062 494.7687 511.95625 526.01876 578.1 612.9937 647.88748 682.7812 696.8437 714.0312 748.9249 783.81869 797.88119 832.7749 864.0249 881.2124 895.2749 926.5249 961.41867 992.66867 1009.85617">unimodal and multimodal objectives (</tspan></text>
<text fill="#c00000" xml:space="preserve" transform="matrix(.24 0 -0 .24 561.8072 586.56)" font-size="62.5" font-family="Arial" font-style="italic"><tspan y="-1654" x="0 17.187502 62.500009 114.562519 148.31252 165.50002 200.37502">ICML 24</tspan></text>
<text xml:space="preserve" transform="matrix(.24 0 -0 .24 618.2872 586.56)" font-size="62.5" font-family="ArialMT"><tspan y="-1654" x="0 20.83125 38.018754 51.750005 93.418758 128.31252 163.20627 177.26877 208.51877 239.76877 274.6625 291.85 309.0375 343.93125 378.82499 396.01249 416.84373 451.73747 486.6312 521.52499 552.77499 569.96249 604.8562 639.74996 670.99996 702.24996 719.43746 733.49996 747.56246 799.6437 813.7062 830.8937 865.7874 882.9749 897.0374 931.93118 966.8249">); Analyze the robustness limitation </tspan></text>
<text xml:space="preserve" transform="matrix(.24 0 -0 .24 314.4322 604.56)" font-size="62.5" font-family="ArialMT"><tspan y="-1654" x="0 14.062501 66.14376 101.03752 135.93128 167.18128 202.07503 236.96878 254.15628 289.05003 320.30003 337.48753 389.56877 424.4625 459.35624 494.24998 508.31248 522.375 539.5625 570.8125">imposed by modality </tspan></text>
<text xml:space="preserve" transform="matrix(.24 0 -0 .24 455.5572 604.56)" font-size="62.5" font-family="ArialMT"><tspan y="-1654" x="0 14.062501 66.14376 101.03752 135.93128 149.99378 184.88753 219.78128 251.03128 285.92503 303.11253 320.30003 355.19377 390.0875">imbalance, and</tspan></text>
<text xml:space="preserve" transform="matrix(.24 0 -0 .24 557.5572 604.56)" font-size="62.5" font-family="ArialMT"><tspan y="-1654" x="0"> </tspan></text>
<text xml:space="preserve" transform="matrix(.24 0 -0 .24 561.6822 604.56)" font-size="62.5" font-family="ArialMT"><tspan y="-1654" x="0 14.062501 66.14376 101.03752 121.868778 156.76253 188.01253 222.90628 240.09378 292.17503 327.06877 341.13127 358.31877 372.38127 424.4625 459.35624 494.24998 529.14376 543.20626 560.39376 581.225 616.1187 651.01248 685.9062 717.1562 734.3437 769.2374 804.13119 835.38119 866.63119 883.81869 918.7124 949.9624 967.1499 984.3374 1019.23117 1040.0625 1074.9563 1109.8501 1127.0376 1161.9314 1196.8252">improve multimodal robustness by targeted </tspan></text>
<text xml:space="preserve" transform="matrix(.24 0 -0 .24 314.4322 622.56)" font-size="62.5" font-family="ArialMT"><tspan y="-1654" x="0 34.893754 69.787509 101.037509 115.100009 149.99376 184.88751 219.78127 254.67502 271.86253 285.92503 320.81877 355.7125 376.54374 411.43748 425.49998 460.3937 495.28746 512.475 547.3687 582.26248 596.32498 631.2187 662.4687 679.6562 693.7187 724.9687 759.8624 777.0499">designed learning objective (</tspan></text>
<text fill="#c00000" xml:space="preserve" transform="matrix(.24 0 -0 .24 505.9322 622.56)" font-size="62.5" font-family="Arial" font-style="italic"><tspan y="-1654" x="0 17.187502 62.500009 97.375019 142.68752 159.87502 194.75002">ICLR 24</tspan></text>
<text xml:space="preserve" transform="matrix(.24 0 -0 .24 561.0572 622.56)" font-size="62.5" font-family="ArialMT"><tspan y="-1654" x="0 20.83125">).</tspan></text>
<path transform="matrix(1,0,0,-1,0,397)" d="M18.27764 384.1647H254.8353V322.3671H18.27764Z" fill="#deebf7"/>
<text xml:space="preserve" transform="matrix(.24 0 -0 .24 47.93146 428.4)" font-size="62.5" font-family="ArialMT"><tspan y="-1654" x="0 52.081254 86.975009 121.86876 156.76251 170.82501 184.88751 202.07501 216.13751 251.03127 282.28126 299.46876 334.3625 369.25624 400.50624 417.69374 431.75624 483.83747 518.7312 553.62496 567.68746 602.5812 637.4749 668.7249 703.61868 738.5124">Modalities has imbalanced </tspan></text>
<text xml:space="preserve" transform="matrix(.24 0 -0 .24 70.93145 446.4)" font-size="62.5" font-family="ArialMT"><tspan y="-1654" x="0 34.893754 69.787509 86.975009 101.037509 153.11876 167.18126 198.43126 233.32501 250.51251 264.575 299.46876 334.3625 351.55 386.44374 421.33747 456.2312 477.06245 511.95619">optimization degree</tspan></text>
<text xml:space="preserve" transform="matrix(.24 0 -0 .24 77.74646 464.4)" font-size="62.5" font-family="ArialMT"><tspan y="-1654" x="0">(</tspan></text>
<text fill="#c00000" xml:space="preserve" transform="matrix(.24 0 -0 .24 82.74645 464.4)" font-size="62.5" font-family="Arial" font-style="italic"><tspan y="-1654" x="0 45.312505 87.00001 128.68752">CVPR</tspan></text>
<text fill="#c00000" xml:space="preserve" transform="matrix(.24 0 -0 .24 128.6215 464.4)" font-size="62.5" font-family="Arial" font-style="italic"><tspan y="-1654" x="0 34.893754 69.787509 86.99376 135.45001 180.78127 222.42502">22 ORAL</tspan></text>
<text xml:space="preserve" transform="matrix(.24 0 -0 .24 190.3715 464.4)" font-size="62.5" font-family="ArialMT"><tspan y="-1654" x="0">)</tspan></text>
<path transform="matrix(1,0,0,-1,0,397)" d="M18.27724 303.2735H256.0672V241.4759H18.27724Z" fill="#deebf7"/>
<text xml:space="preserve" transform="matrix(.24 0 -0 .24 28.48472 509.28)" font-size="62.5" font-family="ArialMT"><tspan y="-1654" x="0 34.893754 69.787509 104.68126 125.51251 160.40627 174.46877 209.36252 244.25627 261.4438 275.5063 327.58753 362.48127 397.375 411.4375 446.33125 481.22499 512.475 547.3687 564.5562 599.44998 634.3437 665.5937 682.7812 714.0312 748.9249 801.00619 835.8999 849.9624">Learning imbalance has sample</tspan></text>
<text xml:space="preserve" transform="matrix(.24 0 -0 .24 240.8597 509.28)" font-size="62.5" font-family="ArialMT"><tspan y="-1654" x="0">-</tspan></text>
<text xml:space="preserve" transform="matrix(.24 0 -0 .24 79.48472 527.28)" font-size="62.5" font-family="ArialMT"><tspan y="-1654" x="0 14.062501 48.956254 80.20625 115.100009 129.1625 146.35 181.24376 195.30626 226.55626 257.80628 278.6375 313.53126 348.425 383.31874 418.21247 449.46247 480.71247">level discrepancy </tspan></text>
<text xml:space="preserve" transform="matrix(.24 0 -0 .24 100.8597 545.28)" font-size="62.5" font-family="ArialMT"><tspan y="-1654" x="0">(</tspan></text>
<text fill="#c00000" xml:space="preserve" transform="matrix(.24 0 -0 .24 105.8597 545.28)" font-size="62.5" font-family="Arial" font-style="italic"><tspan y="-1654" x="0 45.312505 87.00001 128.68752">CVPR</tspan></text>
<text fill="#c00000" xml:space="preserve" transform="matrix(.24 0 -0 .24 151.7347 545.28)" font-size="62.5" font-family="Arial" font-style="italic"><tspan y="-1654" x="0 34.893754">24</tspan></text>
<text xml:space="preserve" transform="matrix(.24 0 -0 .24 168.4847 545.28)" font-size="62.5" font-family="ArialMT"><tspan y="-1654" x="0">)</tspan></text>
<path transform="matrix(1,0,0,-1,0,397)" d="M18.27724 224.2223H257.2786V162.4246H18.27724Z" fill="#deebf7"/>
<text xml:space="preserve" transform="matrix(.24 0 -0 .24 52.90287 588.24)" font-size="62.5" font-family="ArialMT"><tspan y="-1654" x="0 45.312505 80.18751 94.25001 146.31252 181.18752 216.06252 250.93752 265.00004 282.18754 317.06254 351.93754 386.81254 404.00004 456.06254 490.93754 505.00004 522.18759 536.25009 588.31259 623.18759 658.06259 692.93759 707.00009">Unimodal and multimodal </tspan></text>
<text xml:space="preserve" transform="matrix(.24 0 -0 .24 56.77787 606.24)" font-size="62.5" font-family="ArialMT"><tspan y="-1654" x="0 34.893754 69.787509 83.850009 118.74376 149.99376 167.18126 181.24376 212.49376 247.38751 278.6375 295.825 330.71876 365.6125 396.8625 431.75624 448.94374 480.19374 515.08749 549.9812 567.1687 581.2312 595.2937 626.5437 643.7312">objectives have conflicts</tspan></text>
<text xml:space="preserve" transform="matrix(.24 0 -0 .24 104.5379 624.24)" font-size="62.5" font-family="ArialMT"><tspan y="-1654" x="0">(</tspan></text>
<text fill="#c00000" xml:space="preserve" transform="matrix(.24 0 -0 .24 109.5379 624.24)" font-size="62.5" font-family="Arial" font-style="italic"><tspan y="-1654" x="0 17.187502 62.500009 114.562519">ICML</tspan></text>
<text fill="#c00000" xml:space="preserve" transform="matrix(.24 0 -0 .24 149.2679 624.24)" font-size="62.5" font-family="Arial" font-style="italic"><tspan y="-1654" x="0 34.893754">24</tspan></text>
<text xml:space="preserve" transform="matrix(.24 0 -0 .24 166.0179 624.24)" font-size="62.5" font-family="ArialMT"><tspan y="-1654" x="0">)</tspan></text>
<text fill="#9d1d32" xml:space="preserve" transform="matrix(.24 0 -0 .24 319.1182 779.04006)" font-size="75" font-family="ArialMT"><tspan y="-1654" x="0 50.002508 87.5025 129.17252 145.83751 187.5075 212.50502 254.17502 275.01 291.67503 333.34504 375.01506 395.85005 412.51506 454.18507 475.02006 537.5176 579.18759 620.85757 683.35507 720.85507 741.69 779.19 816.69 858.36 900.02999 941.69998 966.69747 983.3625">Exploration in MLLMs scenario</tspan></text>
<path transform="matrix(1,0,0,-1,0,397)" d="M417.8515 118.8524H426.9575V132.4563H445.1695V118.8524H454.2755L436.0635 105.2486Z" fill="#d9d9d9" fill-rule="evenodd"/>
</svg>
